<?xml version="1.0" standalone="no"?>
<!DOCTYPE svg PUBLIC "-//W3C//DTD SVG 20010904//EN"
 "http://www.w3.org/TR/2001/REC-SVG-20010904/DTD/svg10.dtd">
<svg version="1.0" xmlns="http://www.w3.org/2000/svg"
 width="860.000000pt" height="494.000000pt" viewBox="0 0 860.000000 494.000000"
 preserveAspectRatio="xMidYMid meet">

<g transform="translate(0.000000,494.000000) scale(0.100000,-0.100000)"
fill="#000000" stroke="none">
<path d="M2330 4509 c-33 -13 -68 -47 -88 -84 -15 -27 -17 -116 -20 -945 -2
-503 0 -938 3 -967 12 -96 80 -163 167 -163 63 0 120 29 149 77 l24 38 0 971
0 970 -25 37 c-46 67 -136 95 -210 66z"/>
<path d="M6130 4500 c-20 -12 -47 -38 -60 -57 l-25 -37 0 -970 0 -971 24 -38
c29 -48 86 -77 149 -77 57 0 104 27 139 79 l23 34 -2 978 c-3 970 -3 978 -24
1005 -36 49 -70 67 -131 71 -45 3 -66 -1 -93 -17z"/>
<path d="M1375 3856 c-42 -19 -84 -66 -95 -107 -6 -20 -10 -216 -10 -474 0
-407 2 -443 19 -481 58 -128 238 -136 302 -14 18 32 19 66 19 503 0 518 2 502
-66 553 -42 33 -122 42 -169 20z"/>
<path d="M3270 3847 c-30 -16 -51 -37 -67 -67 l-23 -43 0 -454 c0 -501 -1
-494 63 -550 81 -71 202 -48 256 48 20 36 21 51 21 500 0 463 0 464 -23 504
-45 80 -143 106 -227 62z"/>
<path d="M5175 3847 c-24 -14 -50 -40 -65 -67 l-25 -45 1 -456 0 -456 27 -46
c44 -74 134 -106 210 -73 39 16 82 61 96 99 18 46 15 919 -3 960 -40 95 -153
134 -241 84z"/>
<path d="M7100 3859 c-14 -6 -36 -20 -48 -32 -53 -49 -52 -42 -52 -549 0 -454
1 -474 20 -506 70 -115 245 -102 301 22 17 38 19 74 19 482 0 303 -4 452 -11
475 -31 92 -140 143 -229 108z"/>
<path d="M400 3368 c-74 -51 -75 -54 -78 -309 -3 -215 -2 -233 17 -272 37 -75
126 -113 204 -88 45 15 104 80 112 123 3 18 5 130 3 249 l-3 216 -28 36 c-37
49 -75 67 -140 67 -40 0 -63 -6 -87 -22z"/>
<path d="M4220 3369 c-79 -48 -88 -83 -89 -319 -1 -218 6 -259 53 -306 81 -81
215 -63 267 36 17 31 19 60 19 266 0 224 -1 232 -23 265 -53 78 -152 103 -227
58z"/>
<path d="M8031 3368 c-75 -51 -76 -53 -79 -314 -3 -223 -2 -236 18 -272 55
-97 176 -120 257 -49 59 52 63 71 63 309 0 240 -8 274 -71 319 -50 35 -142 39
-188 7z"/>
<path d="M1638 1750 c-302 -55 -518 -254 -582 -537 -20 -92 -21 -243 0 -336 9
-40 34 -110 56 -157 33 -70 56 -100 127 -170 139 -138 272 -196 491 -215 55
-5 222 13 294 31 l66 16 0 179 c0 118 -4 179 -10 179 -6 0 -23 -6 -38 -14 -95
-49 -271 -61 -384 -26 -90 28 -173 102 -213 192 -24 53 -29 77 -29 148 -1 143
55 252 164 318 78 47 122 57 235 56 95 -1 161 -16 258 -59 16 -7 17 4 15 176
l-3 184 -75 18 c-85 20 -300 31 -372 17z"/>
<path d="M3750 1744 c-96 -20 -201 -76 -251 -132 -82 -92 -121 -226 -100 -344
31 -175 140 -272 406 -358 122 -40 175 -84 175 -145 0 -48 -48 -98 -111 -115
-87 -25 -292 -13 -441 25 l-28 7 0 -155 0 -155 30 -7 c16 -4 83 -12 147 -19
372 -41 618 45 720 252 37 74 38 79 38 186 0 99 -3 117 -26 166 -57 121 -146
187 -337 251 -177 59 -211 83 -212 149 0 48 21 75 77 97 75 28 261 22 386 -13
16 -5 17 6 17 140 l0 145 -56 11 c-159 33 -322 39 -434 14z"/>
<path d="M5288 1750 c-364 -66 -598 -340 -598 -700 0 -122 23 -228 72 -330 33
-70 56 -100 128 -172 73 -72 102 -94 181 -131 97 -47 202 -75 299 -80 80 -5
225 9 303 29 l67 16 0 179 c0 118 -4 179 -10 179 -6 0 -24 -7 -40 -15 -47 -24
-159 -46 -236 -47 -204 0 -350 115 -385 304 -29 157 44 314 178 385 134 71
297 67 476 -12 16 -7 17 4 15 176 l-3 184 -75 18 c-85 20 -300 31 -372 17z"/>
<path d="M6704 1749 c-184 -31 -380 -158 -476 -309 -39 -62 -81 -161 -99 -235
-18 -75 -15 -258 5 -335 58 -220 217 -400 426 -482 202 -80 450 -67 641 33
402 213 494 772 183 1108 -167 181 -422 263 -680 220z m298 -372 c74 -36 150
-119 178 -195 16 -41 22 -79 23 -138 0 -71 -4 -90 -32 -150 -134 -287 -545
-279 -667 12 -25 59 -30 179 -10 246 31 109 103 188 212 234 51 21 71 24 150
21 74 -2 100 -8 146 -30z"/>
<path d="M2580 1050 l0 -690 170 0 170 0 -2 688 -3 687 -167 3 -168 2 0 -690z"/>
</g>
</svg>
