<?xml version="1.0" standalone="no"?>
<!DOCTYPE svg PUBLIC "-//W3C//DTD SVG 20010904//EN"
 "http://www.w3.org/TR/2001/REC-SVG-20010904/DTD/svg10.dtd">
<svg version="1.0" xmlns="http://www.w3.org/2000/svg"
 width="225.000000pt" height="225.000000pt" viewBox="0 0 225.000000 225.000000"
 preserveAspectRatio="xMidYMid meet">

<g transform="translate(0.000000,225.000000) scale(0.100000,-0.100000)"
fill="#000000" stroke="none">
<path d="M10 1852 c0 -5 62 -184 139 -398 l139 -389 125 -3 125 -3 10 28 c5
15 62 179 127 363 64 184 121 339 126 345 5 5 9 -147 9 -364 l0 -374 248 6
c278 6 326 14 379 69 43 44 63 96 63 161 0 80 -32 135 -98 169 l-53 27 30 16
c17 8 43 34 58 57 51 76 28 205 -44 256 -57 39 -85 42 -452 42 l-357 0 -78
-272 c-44 -150 -82 -279 -86 -286 -3 -7 -44 116 -90 273 l-84 285 -118 0 c-65
0 -118 -4 -118 -8z m1204 -173 c36 -28 36 -80 0 -108 -22 -17 -41 -21 -100
-21 l-74 0 0 75 0 75 74 0 c59 0 78 -4 100 -21z m-5 -289 c62 -18 80 -77 37
-126 -21 -26 -30 -28 -115 -32 l-91 -4 0 86 0 86 68 0 c37 0 82 -4 101 -10z"/>
<path d="M2040 1055 l0 -65 -228 0 c-262 0 -296 -7 -361 -72 -55 -54 -81 -128
-81 -227 0 -108 21 -173 74 -226 108 -108 323 -98 407 20 15 22 31 52 34 66 6
26 5 27 -40 31 -42 3 -48 1 -60 -22 -7 -14 -27 -38 -44 -54 -43 -41 -124 -48
-178 -16 -56 33 -91 90 -92 153 l-1 27 216 0 217 0 -7 62 c-5 51 -21 97 -64
181 -2 4 44 7 102 7 l105 0 3 -235 3 -235 27 -26 c28 -28 101 -43 151 -30 21
5 23 9 18 43 -6 35 -9 38 -46 43 -61 8 -65 24 -62 245 l2 190 48 3 c46 3 47 4
47 38 l0 34 -50 0 -50 0 0 65 0 65 -45 0 -45 0 0 -65z m-323 -165 c38 -23 62
-57 73 -105 l8 -35 -165 0 -165 0 7 28 c11 44 39 85 75 109 43 30 121 31 167
3z"/>
<path d="M1012 975 c-19 -8 -47 -29 -63 -46 l-29 -31 0 41 0 41 -45 0 -45 0 0
-290 0 -290 49 0 50 0 3 203 c4 236 9 255 85 289 89 39 167 4 184 -83 4 -24 8
-126 9 -226 l0 -183 45 0 45 0 0 228 c0 216 -1 230 -22 272 -31 60 -89 90
-172 90 -34 -1 -76 -7 -94 -15z"/>
<path d="M650 500 c-39 -39 -11 -110 43 -110 28 0 41 9 56 37 16 31 14 41 -14
68 -29 30 -58 32 -85 5z"/>
</g>
</svg>
