<?xml version="1.0" standalone="no"?>
<!DOCTYPE svg PUBLIC "-//W3C//DTD SVG 20010904//EN"
 "http://www.w3.org/TR/2001/REC-SVG-20010904/DTD/svg10.dtd">
<svg version="1.0" xmlns="http://www.w3.org/2000/svg"
 width="348.000000pt" height="348.000000pt" viewBox="0 0 348.000000 348.000000"
 preserveAspectRatio="xMidYMid meet">

<g transform="translate(0.000000,348.000000) scale(0.100000,-0.100000)"
fill="#000000" stroke="none">
<path d="M487 3175 c-86 -32 -163 -114 -187 -200 -8 -29 -10 -382 -8 -1255 l3
-1215 23 -46 c29 -59 82 -112 141 -141 l46 -23 1235 0 1235 0 46 23 c59 29
112 82 141 141 l23 46 0 1235 0 1235 -23 46 c-29 59 -82 112 -141 141 l-46 23
-1225 2 c-1027 1 -1231 -1 -1263 -12z m563 -401 c159 -66 200 -295 75 -419
-102 -103 -279 -98 -374 10 -47 54 -64 100 -64 172 -1 187 187 310 363 237z
m1286 -725 c153 -28 297 -138 365 -280 48 -98 49 -109 49 -586 l0 -453 -215 0
-215 0 0 403 c0 448 0 446 -70 514 -124 121 -322 56 -359 -118 -7 -31 -11
-195 -11 -424 l0 -375 -215 0 -215 0 0 650 0 650 215 0 215 0 0 -85 0 -85 58
58 c64 62 145 108 225 128 67 16 100 17 173 3z m-1176 -669 l0 -650 -215 0
-215 0 0 650 0 650 215 0 215 0 0 -650z"/>
</g>
</svg>
